<svg xmlns="http://www.w3.org/2000/svg" xmlns:xlink="http://www.w3.org/1999/xlink" width="17" height="17" viewBox="0 0 17 17"><defs><style>.a,.c{fill:#fff;}.a{stroke:#707070;}.b{clip-path:url(#a);}</style><clipPath id="a"><rect class="a" width="17" height="17" transform="translate(473 145)"/></clipPath></defs><g class="b" transform="translate(-473 -145)"><g transform="translate(473 146.029)"><path class="c" d="M5.477,9.961H14.51a.5.5,0,0,0,.479-.361l1.992-6.973a.5.5,0,0,0-.479-.635H4.329L3.973.39A.5.5,0,0,0,3.486,0H.5a.5.5,0,0,0,0,1H3.087l1.8,8.092a1.494,1.494,0,0,0,.594,2.865H14.51a.5.5,0,1,0,0-1H5.479a.5.5,0,0,1,0-1ZM15.842,2.988,14.134,8.965H5.878L4.55,2.988Zm0,0" transform="translate(0 0)"/><path class="c" d="M7.031,18.369a1.494,1.494,0,1,0,1.494-1.494A1.5,1.5,0,0,0,7.031,18.369Zm1.494-.5a.5.5,0,1,1-.5.5A.5.5,0,0,1,8.525,17.871Zm0,0" transform="translate(-2.051 -4.922)"/><path class="c" d="M16.969,18.369a1.494,1.494,0,1,0,1.494-1.494A1.5,1.5,0,0,0,16.969,18.369Zm1.494-.5a.5.5,0,1,1-.5.5A.5.5,0,0,1,18.463,17.871Zm0,0" transform="translate(-4.949 -4.922)"/></g></g></svg>