<svg xmlns="http://www.w3.org/2000/svg" xmlns:xlink="http://www.w3.org/1999/xlink" width="123" height="123" viewBox="0 0 123 123"><defs><style>.a{fill:url(#a);}.b{fill:#fff;}.c{filter:url(#b);}</style><linearGradient id="a" x1="0.5" y1="-0.245" x2="0.5" y2="1" gradientUnits="objectBoundingBox"><stop offset="0" stop-color="#fd0"/><stop offset="1" stop-color="#ff9500"/></linearGradient><filter id="b" x="0" y="0" width="123" height="123" filterUnits="userSpaceOnUse"><feOffset dy="3" input="SourceAlpha"/><feGaussianBlur stdDeviation="6" result="c"/><feFlood flood-color="#585555" flood-opacity="0.161"/><feComposite operator="in" in2="c"/><feComposite in="SourceGraphic"/></filter></defs><g transform="translate(18 15)"><g class="c" transform="matrix(1, 0, 0, 1, -18, -15)"><circle class="a" cx="43.5" cy="43.5" r="43.5" transform="translate(18 15)"/></g><g transform="translate(15 19)"><path class="b" d="M326.14,121.81a4.41,4.41,0,0,0,1.45-2.74c1.1-7.71-5.59-15.35-11.82-18.79-7.64-4.22-15.68-5.76-24.29-3.75-5.25,1.23-9,4.24-12.32,8.35-2.72,3.32-5.81,7.72-5.85,12.22,0,1.4.3,4.19,1.29,5.17.09.08.2.15.3.23-1.82,1.18-4.15,3.45-3,5.47a2.8,2.8,0,0,0,2.68,1.07,4.519,4.519,0,0,0,1.21-.37c-.14,1.65-.09,3.78.9,5.17-1.4.24-2.77.77-3.26,2.08-.65,1.7-.15,5.66,1.41,6.86a5.43,5.43,0,0,0,2.81.66c2.25.28,4.46.59,6.74.65,5.2.14,10.39.28,15.59.3s10.48-.09,15.72-.32c3-.13,7.39,0,10.07-1.8,1.87-1.28,2.14-4.12,1.56-6.17a3.91,3.91,0,0,0-3.67-2.93,4.47,4.47,0,0,0,1.34-5,1.6,1.6,0,0,0,.71.22,4.21,4.21,0,0,0,2.95-1.57C330.38,124.68,328.09,122.87,326.14,121.81Zm-50.59-8.26c1.94-5.5,6.61-11.49,11.88-14.12,4.76-2.38,11.37-3,16.59-2.16,7.41,1.2,15.57,5.63,19.54,12.15a17.79,17.79,0,0,1,2.61,7.91c.25,4.48-4.38,4.93-7.88,5.16-5.74.39-11.46.35-17.21.26-5.32,0-10.63,0-15.95-.15-2.61,0-8,.48-9.76-1.87-1.37-1.84-.46-5.35.18-7.18ZM326,136.47c.48,1.32.2,3.65-.92,4.59-1.51,1.28-4.77,1.36-6.63,1.48-6.13.41-12.31.47-18.45.45-5.66,0-11.38,0-17-.35-2.41-.14-7,.09-8-2.5-1.09-3,.58-4.83,3.47-5.07a14.66,14.66,0,0,0,3.44.25c7,.25,14,.73,21,.27,3.59-.23,7.16-.56,10.76-.58,2.71,0,5.34.39,7.9-.59C323.3,134.44,325.17,134.32,326,136.47Zm-13-2.85c-4.41,0-8.78.59-13.19.71-4.13.11-8.26-.06-12.39-.21l-6.1-.22c-3.5-.12-4.4-2.36-4.12-5.47,1.26.2,1.16,1.19,1.91,2.08,2.13,2.58,5.44.67,7.44-.9,1.4-1.1,2.2-1.78,4-.9.66.32,1.15.89,1.86,1.16,1.58.58,2.58-.12,4.07-.54,3.75-1.05,3.63-.38,6.42,1a9.69,9.69,0,0,0,2.21.78,7.53,7.53,0,0,0,5.32-.89c2.12-1.17,2.61-2.34,5.67-1.34.56.18,1,.62,1.61.79a3.24,3.24,0,0,0,3.3-.57c.85-.66,1.3-1.28,2.27-1.36C326.82,134.15,316.27,133.58,313,133.62Zm11.8-7.05c-.86-.19-1.37-.89-2.35-.66-.72.17-1.08.94-1.63,1.34a3.28,3.28,0,0,1-3.29.8c-.56-.16-1.08-.63-1.65-.81-2.55-.84-4,.57-6.15,1.76-2.74,1.51-5.21.52-7.7-.86a5.87,5.87,0,0,0-3.38-1c-1.64.13-2.86,1-4.55,1.07-2.23.12-2.25-.85-4.11-1.36s-3.05.74-4.43,1.77-1.58,1.27-3.68.88c-2.72-.5-1.46-.35-2.67-1.77a2.59,2.59,0,0,0-1.29-.87c-1-.23-1.75.58-2.67.6-4.06.13-.48-3.34,1.19-4.23a25.55,25.55,0,0,0,5.12.64c6.46.48,13,.22,19.52.28,5.93.09,11.86.15,17.78-.3a17.55,17.55,0,0,0,5.92-1.16c.67.32,2.59,1.26,2.8,2,.5,1.66-1.69,2.12-2.78,1.88Z" transform="translate(-271.594 -95.656)"/><path class="b" d="M282.59,120.75c.9,0,.9-1.44,0-1.4-1.57.07-4.47.32-4.21-2a8.3,8.3,0,0,1,2.36-4.25c.62-.65-.37-1.64-1-1-1.42,1.5-3.38,4.37-2.89,6.59S281,120.82,282.59,120.75Z" transform="translate(-271.594 -95.656)"/><path class="b" d="M285.85,120.77a.7.7,0,1,0-.7-.7.7.7,0,0,0,.7.7Z" transform="translate(-271.594 -95.656)"/><path class="b" d="M288.89,102.73a.71.71,0,0,0,.7-.7l.09-.76a.7.7,0,0,0-.7-.7.72.72,0,0,0-.7.7l-.09.76a.7.7,0,0,0,.7.7Z" transform="translate(-271.594 -95.656)"/><path class="b" d="M296.52,101.32a3.511,3.511,0,0,1,.7-.42c.82-.38.1-1.58-.71-1.21a4.86,4.86,0,0,0-1,.64C294.83,100.9,295.83,101.89,296.52,101.32Z" transform="translate(-271.594 -95.656)"/><path class="b" d="M304,101.07c.81.38,1.52-.82.71-1.21a6.62,6.62,0,0,1-1.09-.64c-.74-.52-1.44.7-.71,1.21A8,8,0,0,0,304,101.07Z" transform="translate(-271.594 -95.656)"/><path class="b" d="M309.06,102.81a1.14,1.14,0,0,1,.57-.31c.88-.2.51-1.55-.37-1.35a2.48,2.48,0,0,0-1.19.67C307.43,102.45,308.42,103.44,309.06,102.81Z" transform="translate(-271.594 -95.656)"/><path class="b" d="M300.24,106.74c.57.7,1.55-.29,1-1a3.349,3.349,0,0,0-.41-.43c-.67-.61-1.66.38-1,1a3.351,3.351,0,0,1,.41.43Z" transform="translate(-271.594 -95.656)"/><path class="b" d="M292,106.54a2.14,2.14,0,0,1,.63-.49c.8-.42.09-1.63-.71-1.21a3.29,3.29,0,0,0-.91.71C290.41,106.21,291.4,107.21,292,106.54Z" transform="translate(-271.594 -95.656)"/><path class="b" d="M306.67,106.91c.8.41,1.5-.8.7-1.21a1.61,1.61,0,0,1-.68-.61c-.49-.75-1.7,0-1.21.71A3.1,3.1,0,0,0,306.67,106.91Z" transform="translate(-271.594 -95.656)"/><path class="b" d="M285,106.25a.54.54,0,0,1,.21-.41c.73-.51,0-1.72-.71-1.21a1.93,1.93,0,0,0-.85,1.25C283.49,106.76,284.84,107.14,285,106.25Z" transform="translate(-271.594 -95.656)"/><path class="b" d="M312.89,105.41c.68.58,1.68-.41,1-1l-.63-.52c-.69-.57-1.68.42-1,1Z" transform="translate(-271.594 -95.656)"/></g></g></svg>