<svg xmlns="http://www.w3.org/2000/svg" width="428.103" height="457.859" viewBox="0 0 428.103 457.859"><defs><style>.a{opacity:0.42;}.b{fill:#ebebeb;}.c{fill:#e0e0e0;}.d{fill:#fafafa;}.e{fill:#263238;}.f{fill:#ffc100;}.g{opacity:0.5;}.h{fill:#f5f5f5;}.i{opacity:0.4;}.j{opacity:0.3;}</style></defs><g class="a" transform="translate(-166.66 -126.422)"><g transform="translate(166.66 435.962)"><rect class="b" width="152.101" height="117.314" transform="translate(0 29.807)"/><path class="c" d="M245.19,495.352c-.2,0-.38-26.156-.38-58.416s.175-58.416.38-58.416.38,26.156.38,58.416S245.394,495.352,245.19,495.352Z" transform="translate(-131.19 -349.049)"/><rect class="d" width="11.654" height="13.187" transform="translate(127.552 120.425)"/><rect class="c" width="17.277" height="25.031" transform="translate(46.412 30.113)"/><rect class="c" width="17.277" height="25.031" transform="translate(46.412 121.739)"/><rect class="b" width="191.795" height="147.924" transform="translate(236.308 0.394)"/><path class="c" d="M427.36,505.607c-.2,0-.38-32.961-.38-73.634s.175-73.634.38-73.634.38,32.961.38,73.634S427.579,505.607,427.36,505.607Z" transform="translate(-47.319 -358.34)"/><rect class="d" width="14.706" height="16.619" transform="translate(397.128 114.642)"/><rect class="c" width="21.789" height="31.559" transform="translate(294.812 0.774)"/><rect class="c" width="21.789" height="31.559" transform="translate(294.812 116.307)"/></g><g transform="translate(239.681 126.422)"><path class="e" d="M364.086,126.594h-1.154a28.086,28.086,0,0,0-3.33,0,37.416,37.416,0,0,0-12.457,2.921,38.248,38.248,0,0,0-15.8,12.311,34.51,34.51,0,0,0-5.52,11.289,37.971,37.971,0,0,0,3.841,28.682,32.455,32.455,0,0,0,4.965,6.6,26.987,26.987,0,0,0,6.718,5.257,16.5,16.5,0,0,0,8.427,2.118,12.107,12.107,0,0,0,8.164-3.3,11.786,11.786,0,0,0,3.257-8.412,15.51,15.51,0,0,0-2.921-8.952c-3.782-5.33-9.916-8.908-16.444-10.836a40.38,40.38,0,0,0-20.738-.292,43.463,43.463,0,0,0-9.989,3.972,36,36,0,0,0-8.573,6.732c-.6.686-1.285,1.314-1.826,2.074l-1.65,2.22a41.685,41.685,0,0,0-2.687,4.878A39.575,39.575,0,0,0,293.2,194.62a40.8,40.8,0,0,0,2.921,21.906,33.837,33.837,0,0,0,14.093,16.064,23.367,23.367,0,0,0,9.989,3.023,17.642,17.642,0,0,0,9.858-2.366,15.407,15.407,0,0,0,6.659-7.3,13.232,13.232,0,0,0,.248-9.595,19.321,19.321,0,0,0-5.491-7.769,25.149,25.149,0,0,0-8.076-4.688,31.3,31.3,0,0,0-17.788-.307,34.656,34.656,0,0,0-14.6,8.134,33.356,33.356,0,0,0-8.368,12.954,37.533,37.533,0,0,0,.394,26.287,39.854,39.854,0,0,0,12.019,16.064,43.244,43.244,0,0,0,11.055,6.44c1.373.511,2.439.891,3.169,1.1l1.081.351s-.38-.073-1.11-.277a31.414,31.414,0,0,1-3.184-1.037,41.373,41.373,0,0,1-11.187-6.338,40.029,40.029,0,0,1-12.253-16.137,37.97,37.97,0,0,1-.482-26.565,33.487,33.487,0,0,1,8.456-13.144,35.327,35.327,0,0,1,14.823-8.324,31.969,31.969,0,0,1,18.167.292,25.586,25.586,0,0,1,8.31,4.8,19.832,19.832,0,0,1,5.7,8.047,13.991,13.991,0,0,1-.146,10.062,16.356,16.356,0,0,1-6.966,7.609,18.43,18.43,0,0,1-10.223,2.483,23.746,23.746,0,0,1-10.223-3.125,34.524,34.524,0,0,1-14.443-16.342,41.621,41.621,0,0,1-3.008-22.315,40.685,40.685,0,0,1,3.242-10.982,42.26,42.26,0,0,1,2.746-4.98l1.694-2.264a21.812,21.812,0,0,1,1.855-2.132,36.99,36.99,0,0,1,8.762-6.864,44,44,0,0,1,10.223-4.031,41.1,41.1,0,0,1,21.132.307c6.659,1.986,12.9,5.623,16.824,11.143a16.064,16.064,0,0,1,3.067,9.347,12.472,12.472,0,0,1-3.461,8.894,12.779,12.779,0,0,1-8.616,3.461,16.984,16.984,0,0,1-8.762-2.205,27.149,27.149,0,0,1-6.864-5.389,33.589,33.589,0,0,1-5.038-6.732,38.511,38.511,0,0,1-3.856-29.208,34.9,34.9,0,0,1,5.652-11.406,38.437,38.437,0,0,1,16.064-12.34,36.509,36.509,0,0,1,12.545-2.746,25.518,25.518,0,0,1,3.359,0Z" transform="translate(-166.055 -126.422)"/><rect class="f" width="204.763" height="157.928" transform="translate(42.03 133.292)"/><path class="f" d="M230.75,226.6l37.824,35.283H469.862L435.513,226.6Z" transform="translate(-188.72 -89.767)"/><path class="e" d="M230.75,226.715l204.822-.365h.161l.117.1,34,34.918.35.365.628.643h-.905l-201.288-.161h-.088l-37.8-35.5,37.971,35.05h-.161l201.288-.146-.263.643-.365-.365-33.984-34.918.263.117Z" transform="translate(-188.72 -89.874)"/><path class="e" d="M274.157,276.47a4.235,4.235,0,1,0,.307,0" transform="translate(-170.614 -70.723)"/><path class="e" d="M307.28,276.47a4.22,4.22,0,1,0,.321,0" transform="translate(-155.354 -70.722)"/><path class="e" d="M321.793,309.038a30.258,30.258,0,0,0-4.06-9.069,26.653,26.653,0,0,0-7.74-7.419,23.615,23.615,0,0,0-25.017-.686,26.973,26.973,0,0,0-8.134,6.981,29.936,29.936,0,0,0-4.542,8.85,3.026,3.026,0,0,1,.117-.7,16.307,16.307,0,0,1,.54-1.942,23.365,23.365,0,0,1,3.461-6.528,26.565,26.565,0,0,1,8.222-7.3,24.024,24.024,0,0,1,25.732.7,26.492,26.492,0,0,1,7.8,7.711,23.366,23.366,0,0,1,3.111,6.718,17.151,17.151,0,0,1,.424,1.972,4.061,4.061,0,0,1,.088.716Z" transform="translate(-169.59 -66.903)"/><path class="g" d="M231.07,227.79l36.218,45.915H435.366v-12.37H268.427Z" transform="translate(-188.572 -89.563)"/><path class="e" d="M343.43,373.174c-.2,0-.38-27.47-.38-61.337s.175-61.337.38-61.337.394,27.456.394,61.337S343.649,373.174,343.43,373.174Z" transform="translate(-137.016 -83.843)"/><rect class="h" width="18.051" height="20.402" transform="translate(220.521 251.277)"/><path class="f" d="M244,226.6l-42.03,35.283H244Z" transform="translate(-201.97 -89.767)"/><g class="i" transform="translate(0 136.833)"><path d="M244,226.6l-42.03,35.283H244Z" transform="translate(-201.97 -226.6)"/></g><rect class="f" width="235.432" height="181.587" transform="translate(17.408 275.075)"/><rect class="j" width="235.432" height="181.587" transform="translate(17.408 275.075)"/><path class="e" d="M334.83,515.194c-.2,0-.38-40.468-.38-90.385s.175-90.4.38-90.4.38,40.468.38,90.4S335.034,515.194,334.83,515.194Z" transform="translate(-140.976 -59.817)"/><rect class="h" width="18.051" height="20.402" transform="translate(214.826 415.332)"/><rect class="e" width="26.74" height="38.745" transform="translate(89.231 284.84)"/><rect class="e" width="26.74" height="38.745" transform="translate(89.231 417.377)"/><path class="e" d="M447.277,334.809H444.9l-6.791.073L413.089,335l-82.5.19-82.527-.1-25-.117-6.791-.073h0l6.791-.073,25-.117,82.527-.117,82.5.117,25.017.117,6.791.073h1.767Z" transform="translate(-196.482 -48.847)"/></g></g></svg>