<svg xmlns="http://www.w3.org/2000/svg" xmlns:xlink="http://www.w3.org/1999/xlink" width="24" height="24" viewBox="0 0 24 24"><defs><style>.a,.b{fill:#fff;}.a{stroke:#707070;}.b{stroke:#fff;}.c{clip-path:url(#a);}.d{fill:#56d9de;}.e{fill:#19a9c3;}.f{fill:#295a96;}.g{fill:#163756;}.h{fill:#ecf6fe;}.i{fill:#d3e9fd;}.j{fill:#f70b57;}.k{clip-path:url(#b);}.l{fill:#1ef811;}.m{fill:#fafafa;}</style><clipPath id="a"><rect class="a" width="24" height="24" transform="translate(1458 421)"/></clipPath><clipPath id="b"><circle class="b" cx="8.5" cy="8.5" r="8.5" transform="translate(1462 425)"/></clipPath></defs><g transform="translate(-1458 -420)"><g class="c" transform="translate(0 -1)"><g transform="translate(1458 421)"><path class="d" d="M13.028,4.632H10.233a.723.723,0,0,1-.723-.723V.724A.723.723,0,0,1,10.233,0h2.795a.723.723,0,0,1,.723.723V3.909A.723.723,0,0,1,13.028,4.632Z"/><path class="e" d="M13.4,0H12V4.631h1.4a.723.723,0,0,0,.723-.723V.723A.723.723,0,0,0,13.4,0Z"/><path class="f" d="M20.446,3.312l-1.231-.845h0l-1.231-.845a.723.723,0,1,0-.818,1.191l.635.436-.838,1.221a.723.723,0,1,0,1.192.818l.838-1.221.635.436a.723.723,0,1,0,.818-1.191Z"/><path class="f" d="M19.5,5.9a10.6,10.6,0,1,0-15,15,10.6,10.6,0,1,0,15-15Z"/><path class="g" d="M12,2.792h0V24h0A10.6,10.6,0,0,0,19.5,5.9,10.535,10.535,0,0,0,12,2.792Z"/><path class="h" d="M12,21.3a7.9,7.9,0,0,1,0-15.8c2.076,0,4.246,3.951,4.246,3.951S19.9,11.115,19.9,13.4A7.911,7.911,0,0,1,12,21.3Z"/><path class="i" d="M12,5.494h0V21.3h0a7.911,7.911,0,0,0,7.9-7.9c0-2.319-4.379-3.951-4.379-3.951S14.038,5.494,12,5.494Z"/><path class="f" d="M14.53,1.445H9.47A.723.723,0,0,1,9.47,0H14.53a.723.723,0,1,1,0,1.445Z"/><path class="g" d="M14.53,0H12V1.445h2.53A.723.723,0,0,0,14.53,0Z"/><path class="j" d="M12,5.494h0v7.054a.848.848,0,0,0,.848.848H19.9a7.911,7.911,0,0,0-7.9-7.9Z"/></g></g><g class="k"><g transform="translate(1462 425)"><path class="l" d="M8.5,0A8.5,8.5,0,1,0,17,8.5,8.509,8.509,0,0,0,8.5,0Zm0,0"/><path class="m" d="M12.532,6.376l-4.6,4.6a.708.708,0,0,1-1,0l-2.3-2.3a.708.708,0,0,1,1-1l1.8,1.8,4.1-4.1a.708.708,0,1,1,1,1Zm0,0" transform="translate(0.276 0.323)"/></g></g></g></svg>