<svg xmlns="http://www.w3.org/2000/svg" xmlns:xlink="http://www.w3.org/1999/xlink" width="53" height="61" viewBox="0 0 53 61"><defs><style>.a,.c{fill:#fff;}.a{stroke:#707070;}.b{fill:#fe9807;font-size:10px;font-family:DINNextLTArabic-Medium, DIN Next LT Arabic;font-weight:500;}.d{clip-path:url(#c);}.e{fill:#ffce00;}.f{fill:#ffa300;}.g{fill:#636978;}.h{fill:#414952;}.i{fill:#23272b;}.j{fill:#555a66;}.k{fill:#333940;}.l{fill:#64e1dc;}.m{fill:#e9edf5;}.n{filter:url(#a);}</style><filter id="a" x="0" y="0" width="53" height="53" filterUnits="userSpaceOnUse"><feOffset dy="3" input="SourceAlpha"/><feGaussianBlur stdDeviation="3" result="b"/><feFlood flood-color="#f9ae00" flood-opacity="0.38"/><feComposite operator="in" in2="b"/><feComposite in="SourceGraphic"/></filter><clipPath id="c"><rect class="a" width="37" height="35"/></clipPath></defs><g transform="translate(-281 -250)"><text class="b" transform="translate(320 308)"><tspan x="-23.67" y="0">طباعة</tspan></text><g transform="translate(289 256)"><g class="n" transform="matrix(1, 0, 0, 1, -8, -6)"><circle class="c" cx="17.5" cy="17.5" r="17.5" transform="translate(9 6)"/></g><g class="d"><g transform="translate(1)"><circle class="e" cx="17.5" cy="17.5" r="17.5"/><path class="f" d="M35,17.5a17.573,17.573,0,0,0-.382-3.653l-8.9-8.9L5.264,23.7l5.975,5.975-.49.4L15.575,34.9A17.689,17.689,0,0,0,17.5,35,17.5,17.5,0,0,0,35,17.5Z"/><g transform="translate(4.683 11.281)"><path class="g" d="M27.965,24.5H7.035a2.353,2.353,0,0,1-2.353-2.353V13.634a2.353,2.353,0,0,1,2.353-2.353H27.965a2.353,2.353,0,0,1,2.353,2.353v8.515A2.353,2.353,0,0,1,27.965,24.5Z" transform="translate(-4.683 -11.281)"/></g><g transform="translate(17.508 11.281)"><path class="h" d="M27.965,11.281H17.508V24.5H27.965a2.353,2.353,0,0,0,2.353-2.353V13.634a2.353,2.353,0,0,0-2.353-2.353Z" transform="translate(-17.508 -11.281)"/></g><g transform="translate(9.282 21.338)"><path class="h" d="M9.282,21.338H25.718V24.5H9.282Z" transform="translate(-9.282 -21.338)"/></g><g transform="translate(17.508 21.338)"><path class="i" d="M17.508,21.338h8.21V24.5h-8.21Z" transform="translate(-17.508 -21.338)"/></g><g transform="translate(9.282 4.947)"><path class="h" d="M9.282,4.947H25.718v9.309H9.282Z" transform="translate(-9.282 -4.947)"/></g><g transform="translate(17.508 4.947)"><path class="i" d="M17.508,4.947h8.21v9.309h-8.21Z" transform="translate(-17.508 -4.947)"/></g><g transform="translate(11.669 4.947)"><path class="j" d="M21.877,9.377H13.123a1.454,1.454,0,0,1-1.454-1.454V4.947H23.331V7.923A1.454,1.454,0,0,1,21.877,9.377Z" transform="translate(-11.669 -4.947)"/></g><g transform="translate(17.508 4.947)"><path class="k" d="M17.508,4.947v4.43h4.369a1.454,1.454,0,0,0,1.454-1.454V4.947Z" transform="translate(-17.508 -4.947)"/></g><g transform="translate(6.921 18.769)"><path class="j" d="M6.921,18.769H28.079v1.754H6.921Z" transform="translate(-6.921 -18.769)"/></g><g transform="translate(17.508 18.769)"><path class="k" d="M17.508,18.769h10.57v1.754H17.508Z" transform="translate(-17.508 -18.769)"/></g><g transform="translate(6.921 15.726)"><circle class="l" cx="1.022" cy="1.022" r="1.022"/></g><g transform="translate(9.624 15.726)"><circle class="l" cx="1.022" cy="1.022" r="1.022"/></g><g transform="translate(10.748 21.338)"><path class="c" d="M10.748,21.338h13.5v8.73h-13.5Z" transform="translate(-10.748 -21.338)"/></g><g transform="translate(17.508 21.338)"><path class="m" d="M17.508,21.338h6.743v8.73H17.508Z" transform="translate(-17.508 -21.338)"/></g></g></g></g></g></svg>