<svg xmlns="http://www.w3.org/2000/svg" xmlns:xlink="http://www.w3.org/1999/xlink" width="23.063" height="22.176" viewBox="0 0 23.063 22.176"><defs><style>.a{fill:url(#a);}</style><linearGradient id="a" x1="0.5" x2="0.5" y2="0.712" gradientUnits="objectBoundingBox"><stop offset="0" stop-color="#ff9500"/><stop offset="0" stop-color="#ffa406"/><stop offset="0" stop-color="#ffcb17"/><stop offset="1" stop-color="#ff851a"/></linearGradient></defs><path class="a" d="M18.729,2.188h-.055A6.308,6.308,0,0,0,13.406,5.07,6.308,6.308,0,0,0,8.14,2.188H8.084A6.268,6.268,0,0,0,1.875,8.452a13.5,13.5,0,0,0,2.65,7.357,46.44,46.44,0,0,0,8.881,8.554,46.44,46.44,0,0,0,8.881-8.554,13.5,13.5,0,0,0,2.65-7.357A6.268,6.268,0,0,0,18.729,2.188Z" transform="translate(-1.875 -2.188)"/></svg>