<svg xmlns="http://www.w3.org/2000/svg" xmlns:xlink="http://www.w3.org/1999/xlink" width="13" height="13" viewBox="0 0 13 13"><defs><style>.a,.c{fill:#fc9e1b;}.a{stroke:#707070;}.b{clip-path:url(#a);}</style><clipPath id="a"><rect class="a" width="13" height="13" transform="translate(472.996 279.996)"/></clipPath></defs><g class="b" transform="translate(-472.996 -279.996)"><g transform="translate(473 280)"><path class="c" d="M8.742,5.076a.282.282,0,0,0,.282-.282V1.41A1.412,1.412,0,0,0,7.614,0H1.41A1.412,1.412,0,0,0,0,1.41V11.562a1.412,1.412,0,0,0,1.41,1.41h6.2a1.412,1.412,0,0,0,1.41-1.41V8.178a.282.282,0,1,0-.564,0v3.384a.847.847,0,0,1-.846.846H1.41a.847.847,0,0,1-.846-.846V1.41A.847.847,0,0,1,1.41.564h6.2a.847.847,0,0,1,.846.846V4.794A.282.282,0,0,0,8.742,5.076Z"/><g transform="translate(3.384 6.204)"><path class="c" d="M15.567,11.478H6.543a.282.282,0,1,0,0,.564h9.024a.282.282,0,1,0,0-.564Z" transform="translate(-6.261 -11.478)"/></g><g transform="translate(10.716 4.513)"><path class="c" d="M22,10.124,20.307,8.432a.282.282,0,1,0-.4.4L21.4,10.323l-1.492,1.492a.282.282,0,0,0,.4.4L22,10.523A.282.282,0,0,0,22,10.124Z" transform="translate(-19.826 -8.35)"/></g></g></g></svg>