<svg xmlns="http://www.w3.org/2000/svg" xmlns:xlink="http://www.w3.org/1999/xlink" width="24" height="24" viewBox="0 0 24 24"><defs><style>.a{fill:#fff;stroke:#707070;}.b{clip-path:url(#a);}.c{fill:#ff6a4d;}.d{fill:#e64d2e;}.e{fill:#474f54;}.f{fill:#f2f9ff;}.g{fill:#ff9100;}.h{fill:#fabe2c;}.i{fill:#32393f;}.j{fill:#575f64;}.k{fill:#ffe1ba;}.l{fill:#ffbfab;}.m{fill:#dfe7f4;}.n{fill:#c7cfe1;}</style><clipPath id="a"><rect class="a" width="24" height="24" transform="translate(1602 422)"/></clipPath></defs><g class="b" transform="translate(-1602 -422)"><g transform="translate(1602 422)"><path class="c" d="M10.594,0A2.112,2.112,0,0,0,8.484,2.109v.75l1.406.7H11.3l1.406-.7v-.75A2.112,2.112,0,0,0,10.594,0Z"/><path class="d" d="M12.7,2.859v-.75A2.112,2.112,0,0,0,10.594,0V3.563h.7Z"/><path class="e" d="M0,21.188A3.6,3.6,0,0,0,3.516,24a3.648,3.648,0,0,0,3.563-2.812l-1.528-.7H.976Z"/><path class="f" d="M3.516,22.594a2.109,2.109,0,0,1,0-4.219,2.11,2.11,0,1,1,0,4.219Z"/><path class="g" d="M7.078,8.531H2.813L1.406,9.938v4.219l1.406.7H7.078l2.109-.7v-3.8l-.7-.422Z"/><path class="h" d="M1.406,7.125V9.938H8.484l.7-.364-.7-.339V7.125Z"/><path class="c" d="M11.3,21.188H0v-.7a4.962,4.962,0,0,1,4.969-4.922l1.172-.7H12.7v5.156Z"/><path class="i" d="M0,14.156H9.891v1.406H0Z"/><path class="j" d="M14.813,17.714v2.644l-.7.83H11.3V15.562H9.891a1.41,1.41,0,0,1-1.406-1.406V10.641H12.7V12.75a1.41,1.41,0,0,1,1.406,1.406v2.813Z"/><path class="e" d="M14.813,17.714v2.644l-.7.83H11.3V15.562h-.7V10.641H12.7V12.75a1.41,1.41,0,0,1,1.406,1.406v2.813Z"/><path class="c" d="M12.7,9.938v-.7a2.109,2.109,0,0,0-4.219,0v1.406a2.109,2.109,0,0,0,2.109,2.109h5.672a2.109,2.109,0,0,0,2.109-2.109v-.7Z"/><path class="d" d="M18.375,10.641v-.7H12.7v-.7a2.112,2.112,0,0,0-2.109-2.109V12.75h5.672A2.109,2.109,0,0,0,18.375,10.641Z"/><path class="k" d="M11.3,3.563H9.891l-1.406.7v.7a2.11,2.11,0,1,0,4.219,0v-.7Z"/><path class="l" d="M12.7,4.969v-.7l-1.406-.7h-.7V7.125A2.152,2.152,0,0,0,12.7,4.969Z"/><path class="e" d="M10.594,2.859H8.484V4.266h5.625V2.859Z"/><path class="i" d="M10.594,2.859h3.516V4.266H10.594Z"/><path class="d" d="M20.313,14.313c-.078-.547-.231-1.625-.538-3.772L16.969,9.234v5.625a2.163,2.163,0,0,1-2.156,2.109h-.7v4.219h8.484l1.406-.7V19.078A4.949,4.949,0,0,0,20.313,14.313Z"/><path class="c" d="M21.188,11.344H19.078a2.109,2.109,0,0,1,0-4.219h2.109Z"/><path class="i" d="M20.7,16.99l-.2.781L19.3,17.188a3.517,3.517,0,1,0,1.393-.2Z"/><path class="m" d="M20.484,18.375a2.109,2.109,0,1,0,2.109,2.109A2.112,2.112,0,0,0,20.484,18.375Z"/><path class="n" d="M21.181,20.385,20.7,16.99c-.071,0-.139-.021-.211-.021a3.476,3.476,0,0,0-1.181.219l.485,3.4Z"/></g></g></svg>