<svg xmlns="http://www.w3.org/2000/svg" xmlns:xlink="http://www.w3.org/1999/xlink" width="317" height="317" viewBox="0 0 317 317"><defs><style>.a{fill:#fff;stroke:#707070;}.b{clip-path:url(#a);}.c{fill:#ffd93e;}.d{fill:#fafafa;}</style><clipPath id="a"><rect class="a" width="317" height="317" transform="translate(741 533)"/></clipPath></defs><g class="b" transform="translate(-741 -533)"><g transform="translate(741 533)"><path class="c" d="M158.427,0C71.067,0,0,71.067,0,158.427S71.067,316.854,158.427,316.854s158.427-71.067,158.427-158.427S245.787,0,158.427,0Zm0,0"/><path class="d" d="M289.278,183.993l-85.816,85.813a13.19,13.19,0,0,1-18.667,0L141.888,226.9a13.2,13.2,0,0,1,18.667-18.667l33.573,33.573,76.482-76.479a13.2,13.2,0,0,1,18.667,18.667Zm0,0" transform="translate(-50.554 -59.139)"/></g></g></svg>