<svg xmlns="http://www.w3.org/2000/svg" xmlns:xlink="http://www.w3.org/1999/xlink" width="15" height="15" viewBox="0 0 15 15"><defs><style>.a{fill:#fff;stroke:#707070;}.b{clip-path:url(#a);}</style><clipPath id="a"><rect class="a" width="15" height="15" transform="translate(1742 765)"/></clipPath></defs><g class="b" transform="translate(-1742 -765)"><g transform="translate(1742 765)"><path d="M9.264,3.446h.018S9.268,3.411,9.264,3.446Z"/><path d="M5.032,3.446h.018C5.045,3.411,5.032,3.446,5.032,3.446Z"/><path d="M13.491,4.525a.689.689,0,0,0-.432-.308L12.108,4l.439-.123a.694.694,0,1,0-.374-1.336l-2.047.573a.7.7,0,0,0-.22-.242A8.55,8.55,0,0,0,10.919.221.224.224,0,0,0,10.654,0,10.979,10.979,0,0,1,8.339.236,13.352,13.352,0,0,1,6.022,0a.223.223,0,0,0-.236.33,2.3,2.3,0,0,1,.284.759A4.587,4.587,0,0,1,3.95.732a.223.223,0,0,0-.317.234,4.8,4.8,0,0,0,.935,2.258H4.559a.693.693,0,0,0-.091,1.381A8.293,8.293,0,0,1,3.5,5.827,6.926,6.926,0,0,0,1.509,9.308a5.152,5.152,0,0,0,.014,2.139,3.961,3.961,0,0,0,.812,1.633,5,5,0,0,0,2.144,1.459A7.729,7.729,0,0,0,7.157,15a7.729,7.729,0,0,0,2.678-.462,5,5,0,0,0,2.144-1.459,3.961,3.961,0,0,0,.812-1.633A5.153,5.153,0,0,0,12.8,9.308a6.926,6.926,0,0,0-1.987-3.481c-.268-.3-.524-.582-.737-.871l2.668.613a.694.694,0,0,0,.743-1.044ZM8.335.679A11.179,11.179,0,0,0,10.435.5a11.467,11.467,0,0,1-.969,2.258.7.7,0,0,0-.6.47H8.246l-.046-.1a5.153,5.153,0,0,1-.585-1.96A.224.224,0,0,0,7.349.949a7.811,7.811,0,0,1-.836.119A2.855,2.855,0,0,0,6.365.517,14.907,14.907,0,0,0,8.335.679ZM9.768,3.446V4.39a.251.251,0,1,1-.5,0V3.446a.251.251,0,1,1,.5,0ZM4.149,1.292a5.6,5.6,0,0,0,1.969.247l.439-.028c.207-.019.417-.046.628-.082a5.914,5.914,0,0,0,.572,1.8H5.133A.226.226,0,0,0,5.116,3.2,4.236,4.236,0,0,1,4.149,1.292Zm6.339,4.831a6.562,6.562,0,0,1,1.881,3.266,3.956,3.956,0,0,1-.732,3.407,5.814,5.814,0,0,1-4.481,1.761A5.814,5.814,0,0,1,2.676,12.8a3.957,3.957,0,0,1-.732-3.407A6.562,6.562,0,0,1,3.825,6.123,7.257,7.257,0,0,0,4.971,4.612h.541a.221.221,0,0,0,0-.443H4.559a.251.251,0,1,1,0-.5H8.824v.5H6.566a.221.221,0,0,0,0,.443H8.86a.694.694,0,0,0,.761.464A10.764,10.764,0,0,0,10.488,6.123Zm-.277-2.574,2.081-.582a.251.251,0,1,1,.135.483l-1.189.333-.028.01-1-.23V3.549Zm2.937,1.4a.251.251,0,0,1-.3.188L10.2,4.529a.7.7,0,0,0,.014-.138V4.017l2.748.631A.253.253,0,0,1,13.148,4.949Z"/><path d="M8.573,9.1a.576.576,0,0,0,.576-.576V8.168A1.64,1.64,0,0,0,7.732,6.545V6.161a.576.576,0,0,0-1.151,0v.413a1.815,1.815,0,0,0,.4,3.586h.354a.664.664,0,1,1,0,1.328H6.8A.488.488,0,0,1,6.315,11a.576.576,0,1,0-1.151,0,1.64,1.64,0,0,0,1.417,1.623v.384a.576.576,0,1,0,1.151,0v-.413a1.815,1.815,0,0,0-.4-3.586H6.979a.664.664,0,0,1,0-1.328h.531A.488.488,0,0,1,8,8.168v.354A.576.576,0,0,0,8.573,9.1ZM7.511,7.238H6.979a1.107,1.107,0,0,0,0,2.213h.354a1.372,1.372,0,0,1,.153,2.736.221.221,0,0,0-.2.22v.6a.133.133,0,1,1-.266,0v-.59A.221.221,0,0,0,6.8,12.2a1.2,1.2,0,0,1-1.2-1.2.133.133,0,1,1,.266,0,.931.931,0,0,0,.93.93h.531a1.107,1.107,0,1,0,0-2.213H6.98a1.372,1.372,0,0,1-.153-2.736.221.221,0,0,0,.2-.22v-.6a.133.133,0,1,1,.266,0v.59a.221.221,0,0,0,.221.221,1.2,1.2,0,0,1,1.2,1.2v.354a.133.133,0,1,1-.266,0V8.168A.931.931,0,0,0,7.511,7.238Z"/></g></g></svg>