<svg xmlns="http://www.w3.org/2000/svg" xmlns:xlink="http://www.w3.org/1999/xlink" width="24" height="24" viewBox="0 0 24 24"><defs><style>.a{fill:#fff;stroke:#707070;}.b{clip-path:url(#a);}.c{fill:#e2dddd;}.d{fill:#bfb4b3;}.e{fill:#7f7877;}.f{fill:#544e47;}.g{fill:#ecf6fe;}.h{fill:#d3e9fd;}.i{fill:#f70b57;}</style><clipPath id="a"><rect class="a" width="24" height="24" transform="translate(1458 421)"/></clipPath></defs><g class="b" transform="translate(-1458 -421)"><g transform="translate(1458 421)"><path class="c" d="M13.028,4.632H10.233a.723.723,0,0,1-.723-.723V.724A.723.723,0,0,1,10.233,0h2.795a.723.723,0,0,1,.723.723V3.909A.723.723,0,0,1,13.028,4.632Z"/><path class="d" d="M13.4,0H12V4.631h1.4a.723.723,0,0,0,.723-.723V.723A.723.723,0,0,0,13.4,0Z"/><path class="e" d="M20.446,3.312l-1.231-.845h0l-1.231-.845a.723.723,0,1,0-.818,1.191l.635.436-.838,1.221a.723.723,0,1,0,1.192.818l.838-1.221.635.436a.723.723,0,1,0,.818-1.191Z"/><path class="e" d="M19.5,5.9a10.6,10.6,0,1,0-15,15,10.6,10.6,0,1,0,15-15Z"/><path class="f" d="M12,2.792h0V24h0A10.6,10.6,0,0,0,19.5,5.9,10.535,10.535,0,0,0,12,2.792Z"/><path class="g" d="M12,21.3a7.9,7.9,0,0,1,0-15.8c2.076,0,4.246,3.951,4.246,3.951S19.9,11.115,19.9,13.4A7.911,7.911,0,0,1,12,21.3Z"/><path class="h" d="M12,5.494h0V21.3h0a7.911,7.911,0,0,0,7.9-7.9c0-2.319-4.379-3.951-4.379-3.951S14.038,5.494,12,5.494Z"/><path class="e" d="M14.53,1.445H9.47A.723.723,0,0,1,9.47,0H14.53a.723.723,0,1,1,0,1.445Z"/><path class="f" d="M14.53,0H12V1.445h2.53A.723.723,0,0,0,14.53,0Z"/><path class="i" d="M12,5.494h0v7.054a.848.848,0,0,0,.848.848H19.9a7.911,7.911,0,0,0-7.9-7.9Z"/></g></g></svg>