<svg xmlns="http://www.w3.org/2000/svg" xmlns:xlink="http://www.w3.org/1999/xlink" width="17" height="17" viewBox="0 0 17 17"><defs><style>.a{fill:#fff;stroke:#fff;}.b{clip-path:url(#a);}.c{fill:#1ef811;}.d{fill:#fafafa;}</style><clipPath id="a"><circle class="a" cx="8.5" cy="8.5" r="8.5" transform="translate(1462 425)"/></clipPath></defs><g class="b" transform="translate(-1462 -425)"><g transform="translate(1462 425)"><path class="c" d="M8.5,0A8.5,8.5,0,1,0,17,8.5,8.509,8.509,0,0,0,8.5,0Zm0,0"/><path class="d" d="M12.532,6.376l-4.6,4.6a.708.708,0,0,1-1,0l-2.3-2.3a.708.708,0,0,1,1-1l1.8,1.8,4.1-4.1a.708.708,0,1,1,1,1Zm0,0" transform="translate(0.276 0.323)"/></g></g></svg>