<svg xmlns="http://www.w3.org/2000/svg" xmlns:xlink="http://www.w3.org/1999/xlink" width="36" height="36" viewBox="0 0 36 36"><defs><style>.a,.c,.d{fill:#fc9e1b;}.a{stroke:#707070;}.b{clip-path:url(#a);}.d{font-size:10px;font-family:DINNextLTArabic-Bold, DIN Next LT Arabic;font-weight:700;}</style><clipPath id="a"><rect class="a" width="36" height="36" transform="translate(766 74)"/></clipPath></defs><g class="b" transform="translate(-766 -74)"><g transform="translate(766 76.18)"><path class="c" d="M11.6,21.094H30.727a1.055,1.055,0,0,0,1.014-.765L35.959,5.563a1.055,1.055,0,0,0-1.014-1.344H9.166L8.413.826A1.055,1.055,0,0,0,7.383,0H1.055a1.055,1.055,0,0,0,0,2.109H6.537l3.808,17.136A3.164,3.164,0,0,0,11.6,25.313H30.727a1.055,1.055,0,0,0,0-2.109H11.6a1.055,1.055,0,0,1,0-2.109ZM33.547,6.328,29.931,18.984H12.448L9.635,6.328Zm0,0"/><path class="c" d="M10.547,28.477a3.164,3.164,0,1,0,3.164-3.164A3.168,3.168,0,0,0,10.547,28.477Zm3.164-1.055a1.055,1.055,0,1,1-1.055,1.055A1.056,1.056,0,0,1,13.711,27.422Zm0,0"/><path class="c" d="M25.453,28.477a3.164,3.164,0,1,0,3.164-3.164A3.168,3.168,0,0,0,25.453,28.477Zm3.164-1.055a1.055,1.055,0,1,1-1.055,1.055A1.056,1.056,0,0,1,28.617,27.422Zm0,0"/></g><text class="d" transform="translate(784 80)"><tspan x="0" y="12">0</tspan></text></g></svg>