<svg xmlns="http://www.w3.org/2000/svg" xmlns:xlink="http://www.w3.org/1999/xlink" width="17" height="17" viewBox="0 0 17 17"><defs><style>.a,.c{fill:#fafafa;}.a{stroke:#707070;}.b{clip-path:url(#a);}</style><clipPath id="a"><rect class="a" width="17" height="17" transform="translate(473 234)"/></clipPath></defs><g class="b" transform="translate(-473 -234)"><g transform="translate(475.125 234)"><path class="c" d="M9.375,0A6.381,6.381,0,0,0,3,6.375C3,10.794,8.755,16.6,9,16.845a.534.534,0,0,0,.752,0c.244-.245,6-6.051,6-10.47A6.381,6.381,0,0,0,9.375,0Zm0,15.7c-1.269-1.358-5.312-5.95-5.312-9.326a5.313,5.313,0,0,1,10.625,0C14.688,9.747,10.644,14.343,9.375,15.7Z" transform="translate(-3)"/><g transform="translate(3.188 3.188)"><path class="c" d="M10.688,4.5a3.188,3.188,0,1,0,3.188,3.188A3.191,3.191,0,0,0,10.688,4.5Zm0,5.313a2.125,2.125,0,1,1,2.125-2.125A2.127,2.127,0,0,1,10.688,9.813Z" transform="translate(-7.5 -4.5)"/></g></g></g></svg>