<svg xmlns="http://www.w3.org/2000/svg" xmlns:xlink="http://www.w3.org/1999/xlink" width="17" height="17" viewBox="0 0 17 17"><defs><style>.a,.c{fill:#fff;}.a{stroke:#707070;}.b{clip-path:url(#a);}</style><clipPath id="a"><rect class="a" width="17" height="17" transform="translate(473 185)"/></clipPath></defs><g class="b" transform="translate(-473 -185)"><g transform="translate(474.408 185)"><path class="c" d="M8.174,8.189a3.962,3.962,0,0,0,2.9-1.2,3.962,3.962,0,0,0,1.2-2.9,3.962,3.962,0,0,0-1.2-2.9A3.963,3.963,0,0,0,8.174,0a3.962,3.962,0,0,0-2.9,1.2,3.962,3.962,0,0,0-1.2,2.895,3.962,3.962,0,0,0,1.2,2.9A3.963,3.963,0,0,0,8.174,8.189ZM5.984,1.9A2.959,2.959,0,0,1,8.174,1a2.96,2.96,0,0,1,2.191.908,2.96,2.96,0,0,1,.908,2.191,2.96,2.96,0,0,1-.908,2.191,2.96,2.96,0,0,1-2.191.908,2.96,2.96,0,0,1-2.191-.908,2.96,2.96,0,0,1-.908-2.191A2.96,2.96,0,0,1,5.984,1.9Zm0,0" transform="translate(-1.19 0)"/><path class="c" d="M14.149,16.453a10.113,10.113,0,0,0-.138-1.074,8.463,8.463,0,0,0-.264-1.08,5.335,5.335,0,0,0-.444-1.007,3.8,3.8,0,0,0-.669-.872,2.952,2.952,0,0,0-.962-.6,3.324,3.324,0,0,0-1.228-.222,1.246,1.246,0,0,0-.665.282c-.2.13-.433.281-.693.447a3.972,3.972,0,0,1-.9.4,3.483,3.483,0,0,1-2.194,0,3.96,3.96,0,0,1-.9-.4c-.258-.165-.491-.315-.694-.447a1.245,1.245,0,0,0-.665-.282,3.319,3.319,0,0,0-1.228.222,2.949,2.949,0,0,0-.962.6,3.8,3.8,0,0,0-.669.872A5.345,5.345,0,0,0,.436,14.3a8.483,8.483,0,0,0-.264,1.08,10.045,10.045,0,0,0-.138,1.075c-.023.325-.034.663-.034,1a2.823,2.823,0,0,0,.838,2.136A3.018,3.018,0,0,0,3,20.381h8.186a3.018,3.018,0,0,0,2.16-.788,2.822,2.822,0,0,0,.839-2.136c0-.343-.012-.68-.034-1Zm-1.491,2.418a2.032,2.032,0,0,1-1.474.513H3a2.032,2.032,0,0,1-1.474-.513A1.843,1.843,0,0,1,1,17.458c0-.319.011-.633.032-.935a9.06,9.06,0,0,1,.125-.967,7.482,7.482,0,0,1,.232-.952,4.351,4.351,0,0,1,.361-.819,2.815,2.815,0,0,1,.492-.645,1.958,1.958,0,0,1,.64-.4,2.292,2.292,0,0,1,.785-.151c.035.019.1.054.2.12.2.133.441.286.7.452a4.936,4.936,0,0,0,1.126.5,4.479,4.479,0,0,0,2.807,0,4.941,4.941,0,0,0,1.127-.5c.267-.171.5-.319.7-.452.1-.065.163-.1.2-.12a2.294,2.294,0,0,1,.785.151,1.961,1.961,0,0,1,.64.4,2.807,2.807,0,0,1,.492.645,4.337,4.337,0,0,1,.361.819,7.465,7.465,0,0,1,.232.952,9.136,9.136,0,0,1,.125.968h0c.021.3.032.615.032.935a1.843,1.843,0,0,1-.529,1.414Zm0,0" transform="translate(0 -3.381)"/></g></g></svg>